<?xml version="1.0" standalone="no"?>
<!DOCTYPE svg PUBLIC "-//W3C//DTD SVG 20010904//EN"
        "http://www.w3.org/TR/2001/REC-SVG-20010904/DTD/svg10.dtd">
<svg version="1.0" xmlns="http://www.w3.org/2000/svg"
     width="1024.000000pt" height="1024.000000pt" viewBox="0 0 1024.000000 1024.000000"
     preserveAspectRatio="xMidYMid meet">
    <metadata>
        Created by potrace 1.11, written by Peter Selinger 2001-2013
    </metadata>
    <g transform="translate(0.000000,1024.000000) scale(0.100000,-0.100000)"
       fill="#000000" stroke="none">
        <path d="M0 5120 l0 -5120 5120 0 5120 0 0 5120 0 5120 -5120 0 -5120 0 0
-5120z m4593 -2403 c270 -615 494 -1114 498 -1110 5 5 224 499 487 1099 264
600 485 1101 491 1112 10 20 20 22 91 22 l80 0 0 -1315 0 -1315 -80 0 -80 0
-2 1131 -3 1130 -455 -1028 -456 -1028 -75 -3 -75 -3 -453 1028 c-249 565
-457 1032 -462 1038 -5 5 -9 -457 -9 -1128 l0 -1137 -75 0 -75 0 0 1315 0
1316 82 -3 81 -3 490 -1118z m3754 -187 c255 -712 465 -1303 468 -1312 6 -16
-2 -18 -78 -18 l-85 0 -26 73 c-14 39 -84 239 -155 442 l-128 370 -545 3 -544
2 -148 -427 c-82 -236 -153 -436 -158 -445 -7 -15 -23 -18 -90 -18 -78 0 -80
1 -75 22 3 12 214 604 469 1315 l462 1294 86 -3 85 -3 462 -1295z"/>
        <path d="M7548 2938 l-246 -703 490 -3 c270 -1 493 0 495 2 4 4 -477 1387
-486 1399 -4 4 -118 -309 -253 -695z"/>
    </g>
</svg>
