<?xml version="1.0" standalone="no"?>
<!DOCTYPE svg PUBLIC "-//W3C//DTD SVG 20010904//EN"
        "http://www.w3.org/TR/2001/REC-SVG-20010904/DTD/svg10.dtd">
<svg version="1.0" xmlns="http://www.w3.org/2000/svg" width="1024.000000pt" height="1024.000000pt"
     viewBox="0 0 1024.000000 1024.000000"
     preserveAspectRatio="xMidYMid meet">
    <metadata>
        Created by potrace 1.11, written by Peter Selinger 2001-2013
    </metadata>
    <g transform="translate(0.000000,1024.000000) scale(0.100000,-0.100000)"
       fill="#000000" stroke="none">
        <path d="M2090 7240 l0 -1900 795 0 795 0 0 1900 0 1900 -795 0 -795 0 0
-1900z"/>
        <path d="M4200 7240 l0 -1900 795 0 795 0 0 1900 0 1900 -795 0 -795 0 0
-1900z"/>
    <path d="M6310 7241 l0 -1901 790 0 791 0 -3 1423 -3 1422 -23 113 c-50 252
-128 402 -286 549 -139 131 -333 215 -616 269 -60 11 -169 17 -367 21 l-283 5
0 -1901z"/>
    <path d="M5310 4933 c-362 -37 -609 -133 -779 -304 -135 -134 -208 -283 -264
-538 -21 -95 -21 -113 -24 -1523 l-4 -1428 786 0 785 0 0 1900 0 1900 -232 -2
c-128 0 -249 -3 -268 -5z"/>
    <path d="M6320 3040 l0 -1900 785 0 785 0 0 1360 c0 894 -4 1394 -11 1458 -34
314 -120 516 -286 673 -142 135 -293 209 -533 262 -164 37 -279 47 -525 47
l-215 0 0 -1900z"/>
    <path d="M2090 7240 l0 -1900 790 0 790 0 0 1900 0 1900 -790 0 -790 0 0
-1900z"/>
    <path d="M4210 7240 l0 -1900 790 0 790 0 0 1900 0 1900 -790 0 -790 0 0
-1900z"/>
    <path d="M6320 7240 l0 -1900 785 0 786 0 -4 1408 c-4 1522 -2 1469 -58 1672
-51 187 -168 365 -308 468 -237 176 -538 252 -1003 252 l-198 0 0 -1900z"/>
    <path d="M5380 4929 c-232 -13 -468 -68 -615 -142 -329 -165 -485 -451 -515
-941 -6 -90 -10 -722 -10 -1433 l0 -1273 780 0 780 0 0 1900 0 1900 -137 -1
c-76 -1 -203 -6 -283 -10z"/>
    <path d="M6330 3040 l0 -1900 780 0 780 0 0 1273 c0 699 -5 1340 -10 1424 -27
433 -133 678 -375 860 -130 98 -304 166 -527 207 -93 18 -366 35 -540 36
l-108 0 0 -1900z"/>
</g>
</svg>
