<?xml version="1.0" encoding="UTF-8" standalone="no"?><!-- Generator: Gravit.io --><svg xmlns="http://www.w3.org/2000/svg" xmlns:xlink="http://www.w3.org/1999/xlink" style="isolation:isolate" viewBox="0 0 400 400" width="400pt" height="400pt"><defs><clipPath id="_clipPath_36kT4ZfnLHyQnV43VVrFvUJOOIJS7kgv"><rect width="400" height="400"/></clipPath></defs><g clip-path="url(#_clipPath_36kT4ZfnLHyQnV43VVrFvUJOOIJS7kgv)"><g><path d=" M 176.707 266.554 L 244.085 210.216 L 323.668 142.283 C 319.29 142.283 305.948 140.025 302.41 142.984 Q 298.872 145.942 179.374 245.511 L 205.961 126.335 C 207.969 117.334 202.469 110 193.713 110 L 193.672 110 L 163.172 246.719 C 160.839 257.178 166.779 265.804 176.707 266.554" fill="rgb(232,38,93)"/><path d=" M 328.865 144.443 L 177.933 273.596 L 176.514 273.596 C 162.122 273.596 153.051 261.554 156.361 246.719 L 186.861 110 L 186.82 110 L 133.571 110 C 129.193 110 125.625 113.626 125.625 118.168 C 125.625 120.418 126.517 122.459 127.936 123.959 C 129.396 125.418 131.382 126.335 133.571 126.335 L 167.285 126.335 L 163.632 142.711 L 93.284 142.711 C 88.906 142.711 85.338 146.378 85.338 150.878 C 85.338 153.128 86.23 155.17 87.649 156.629 C 89.108 158.129 91.095 159.045 93.284 159.045 L 159.987 159.045 L 156.334 175.422 L 125.625 175.422 C 121.247 175.422 117.679 179.089 117.679 183.589 C 117.679 185.881 118.571 187.881 119.99 189.381 C 121.449 190.84 123.436 191.756 125.625 191.756 L 152.69 191.756 L 149.028 208.174 L 67.946 208.174 C 63.568 208.174 60 211.841 60 216.342 C 60 218.592 60.892 220.634 62.311 222.133 C 63.77 223.592 65.757 224.509 67.946 224.509 L 145.383 224.509 L 141.731 240.885 L 113.058 240.885 C 108.679 240.885 105.112 244.552 105.112 249.052 C 105.112 251.303 106.004 253.345 107.422 254.803 C 108.882 256.303 110.869 257.22 113.058 257.22 L 139.401 257.22 C 139.535 263.297 141.015 268.876 143.658 273.638 L 85.353 273.638 C 80.975 273.638 77.408 277.263 77.408 281.805 C 77.408 284.055 78.299 286.097 79.718 287.555 C 81.178 289.055 83.164 289.972 85.353 289.972 L 175.648 289.972 Q 178.64 290.044 180.408 289.395 Q 182.176 288.747 185.11 286.263 L 335.694 153.957 C 344.986 146.344 337.622 144.443 328.865 144.443 Z " fill="rgb(232,38,93)"/></g></g></svg>