<?xml version="1.0" encoding="UTF-8" standalone="no"?><!-- Generator: Gravit.io -->
<svg xmlns="http://www.w3.org/2000/svg"
     style="isolation:isolate" viewBox="0 0 1024 1024" width="1024pt" height="1024pt">
    <defs>
        <clipPath id="_clipPath_2o61rWflNd7O8lFwwX6MkGGnHENDsedP">
            <rect width="1024" height="1024"/>
        </clipPath>
    </defs>
    <g clip-path="url(#_clipPath_2o61rWflNd7O8lFwwX6MkGGnHENDsedP)">
        <path d="M 495.92 133.115 L 504.08 133.115 C 547.085 133.115 582 168.03 582 211.035 L 582 631.08 C 582 674.085 547.085 709 504.08 709 L 495.92 709 C 452.915 709 418 674.085 418 631.08 L 418 211.035 C 418 168.03 452.915 133.115 495.92 133.115 Z"
              style="stroke:none;fill:#FF8800;stroke-miterlimit:10;"/>
        <path d="M 797 229 L 797 229 C 842.257 229 879 265.743 879 311 L 879 784.77 C 879 830.027 842.257 866.77 797 866.77 L 797 866.77 C 751.743 866.77 715 830.027 715 784.77 L 715 311 C 715 265.743 751.743 229 797 229 Z"
              style="stroke:none;fill:#2C629D;stroke-miterlimit:10;"/>
        <path d="M 212 229 L 212 229 C 257.257 229 294 265.743 294 311 L 294 784.77 C 294 830.027 257.257 866.77 212 866.77 L 212 866.77 C 166.743 866.77 130 830.027 130 784.77 L 130 311 C 130 265.743 166.743 229 212 229 Z"
              style="stroke:none;fill:#2C629D;stroke-miterlimit:10;"/>
    </g>
</svg>