<?xml version="1.0" encoding="iso-8859-1"?>
<!-- Generator: Adobe Illustrator 19.0.0, SVG Export Plug-In . SVG Version: 6.00 Build 0)  -->
<svg version="1.1" id="Layer_1" xmlns="http://www.w3.org/2000/svg" x="0px" y="0px"
     viewBox="0 0 512.037 512.037" style="enable-background:new 0 0 512.037 512.037;" xml:space="preserve">
<g>
	<g>
		<g>
			<path d="M157.736,355.664c-0.939-4.117-4.203-7.317-8.363-8.128c-4.117-0.853-8.363,0.896-10.795,4.352L97.96,409.915
				c-1.28,1.792-1.941,3.925-1.941,6.123v85.333c0,4.309,2.603,8.213,6.592,9.856c1.323,0.555,2.709,0.811,4.075,0.811
				c2.773,0,5.504-1.088,7.552-3.115l62.336-62.315c2.816-2.816,3.84-6.976,2.624-10.773
				C174.717,421.84,166.035,392.891,157.736,355.664z"/>
            <path d="M414.077,409.915l-40.619-58.027c-2.411-3.456-6.635-5.184-10.795-4.352c-4.139,0.811-7.424,4.011-8.363,8.128
				c-8.32,37.205-17.003,66.176-21.461,80.128c-1.216,3.797-0.192,7.957,2.624,10.773L397.8,508.88
				c2.048,2.048,4.779,3.115,7.552,3.115c1.365,0,2.773-0.256,4.075-0.811c3.989-1.643,6.592-5.547,6.592-9.856v-85.333
				C416.019,413.84,415.357,411.707,414.077,409.915z"/>
            <path d="M309.949,437.371c6.891-20.629,42.069-131.029,42.069-234.688c0-115.221-85.077-196.373-88.704-199.787
				c-4.075-3.861-10.496-3.861-14.592,0c-3.627,3.413-88.704,84.565-88.704,199.787c0,103.659,35.2,214.037,42.069,234.688
				l-20.203,60.608c-1.088,3.243-0.533,6.827,1.472,9.621c2.005,2.773,5.205,4.437,8.64,4.437h128c3.435,0,6.656-1.643,8.64-4.437
				c2.027-2.773,2.56-6.357,1.472-9.621L309.949,437.371z M256.019,213.371c-17.643,0-32-14.357-32-32s14.357-32,32-32
				s32,14.357,32,32S273.661,213.371,256.019,213.371z"/>
		</g>
	</g>
</g>
    <g>
</g>
    <g>
</g>
    <g>
</g>
    <g>
</g>
    <g>
</g>
    <g>
</g>
    <g>
</g>
    <g>
</g>
    <g>
</g>
    <g>
</g>
    <g>
</g>
    <g>
</g>
    <g>
</g>
    <g>
</g>
    <g>
</g>
</svg>
